<svg width="16" height="15" viewBox="0 0 16 15" fill="none" xmlns="http://www.w3.org/2000/svg">
<path d="M8.75 3.75002V7.14612L11.5719 8.83909C11.714 8.92445 11.8164 9.06279 11.8566 9.22366C11.8967 9.38453 11.8713 9.55476 11.7859 9.6969C11.7006 9.83904 11.5622 9.94144 11.4014 9.98159C11.2405 10.0217 11.0703 9.99633 10.9281 9.91096L7.80312 8.03596C7.71063 7.98039 7.63411 7.90183 7.58099 7.80791C7.52787 7.71399 7.49997 7.60792 7.5 7.50002V3.75002C7.5 3.58426 7.56585 3.42529 7.68306 3.30808C7.80027 3.19087 7.95924 3.12502 8.125 3.12502C8.29076 3.12502 8.44973 3.19087 8.56694 3.30808C8.68415 3.42529 8.75 3.58426 8.75 3.75002ZM8.125 2.31338e-05C7.13906 -0.00243276 6.16242 0.190675 5.25161 0.568169C4.34079 0.945664 3.51389 1.50005 2.81875 2.19924C2.25078 2.77424 1.74609 3.32737 1.25 3.90627V2.50002C1.25 2.33426 1.18415 2.17529 1.06694 2.05808C0.949731 1.94087 0.79076 1.87502 0.625 1.87502C0.45924 1.87502 0.300268 1.94087 0.183058 2.05808C0.065848 2.17529 0 2.33426 0 2.50002V5.62502C0 5.79078 0.065848 5.94975 0.183058 6.06697C0.300268 6.18418 0.45924 6.25002 0.625 6.25002H3.75C3.91576 6.25002 4.07473 6.18418 4.19194 6.06697C4.30915 5.94975 4.375 5.79078 4.375 5.62502C4.375 5.45926 4.30915 5.30029 4.19194 5.18308C4.07473 5.06587 3.91576 5.00002 3.75 5.00002H1.95312C2.51172 4.34221 3.06797 3.72268 3.70234 3.08049C4.57098 2.21186 5.67633 1.61847 6.88029 1.37446C8.08424 1.13045 9.33341 1.24665 10.4717 1.70853C11.61 2.17041 12.5869 2.95749 13.2805 3.97144C13.974 4.98538 14.3533 6.18121 14.3711 7.40952C14.3889 8.63782 14.0443 9.84413 13.3804 10.8777C12.7165 11.9113 11.7627 12.7263 10.6382 13.2209C9.51379 13.7155 8.2685 13.8678 7.05799 13.6587C5.84749 13.4496 4.72543 12.8885 3.83203 12.0453C3.77232 11.9889 3.70208 11.9448 3.62532 11.9155C3.54856 11.8862 3.46679 11.8724 3.38467 11.8747C3.30254 11.877 3.22168 11.8955 3.1467 11.929C3.07172 11.9626 3.00408 12.0106 2.94766 12.0703C2.89123 12.13 2.84712 12.2003 2.81783 12.277C2.78855 12.3538 2.77467 12.4356 2.777 12.5177C2.77932 12.5998 2.79779 12.6807 2.83136 12.7557C2.86493 12.8306 2.91295 12.8983 2.97266 12.9547C3.86285 13.7948 4.94512 14.4042 6.125 14.7298C7.30489 15.0554 8.54653 15.0873 9.74157 14.8226C10.9366 14.558 12.0487 14.005 12.9809 13.2117C13.913 12.4184 14.6368 11.4091 15.0892 10.2718C15.5415 9.13442 15.7086 7.90366 15.5759 6.68689C15.4432 5.47011 15.0147 4.30431 14.3279 3.29122C13.641 2.27813 12.7166 1.44854 11.6354 0.874854C10.5542 0.301167 9.34899 0.000819796 8.125 2.31338e-05Z" fill="#1C1C1C"/>
</svg>
